<svg width="36" height="36" viewBox="0 0 36 36" fill="none" xmlns="http://www.w3.org/2000/svg">
<path d="M18 36C27.3888 36 35 28.3888 35 19C35 9.61116 27.3888 2 18 2C8.61116 2 1 9.61116 1 19C1 28.3888 8.61116 36 18 36Z" fill="#686868"/>
<path d="M18 34C27.3888 34 35 26.3888 35 17C35 7.61116 27.3888 0 18 0C8.61116 0 1 7.61116 1 17C1 26.3888 8.61116 34 18 34Z" fill="#FFCC4D"/>
<path d="M18 32C25.732 32 32 25.732 32 18C32 10.268 25.732 4 18 4C10.268 4 4 10.268 4 18C4 25.732 10.268 32 18 32Z" fill="#FFE8B6"/>
<path d="M18 31C25.732 31 32 24.732 32 17C32 9.26801 25.732 3 18 3C10.268 3 4 9.26801 4 17C4 24.732 10.268 31 18 31Z" fill="#FFAC33"/>
<path d="M9.54297 10.856C9.54297 10.311 10.078 10.093 10.078 10.093L17.956 6.39301L25.909 10.093C25.909 10.093 26.457 10.215 26.457 10.86V11.501H9.54297V10.856Z" fill="#FFE8B6"/>
<path d="M25.9291 12.836C25.9291 12.252 25.4241 11.779 24.8021 11.779H11.1291C10.5061 11.779 10.0721 12.252 10.0721 12.836C10.0721 13.233 10.2761 13.575 10.6011 13.756V14.422H12.7151V13.893H14.8291V14.422H16.9431V13.893H19.0571V14.422H21.1711V13.893H23.2851V14.422H25.4001V13.729C25.7171 13.541 25.9291 13.212 25.9291 12.836ZM27.5141 24C27.5141 24.2103 27.4305 24.412 27.2818 24.5607C27.1331 24.7094 26.9314 24.793 26.7211 24.793H9.27908C9.06877 24.793 8.86706 24.7094 8.71835 24.5607C8.56963 24.412 8.48608 24.2103 8.48608 24C8.48608 23.7897 8.56963 23.588 8.71835 23.4393C8.86706 23.2905 9.06877 23.207 9.27908 23.207H26.7221C27.1591 23.207 27.5141 23.562 27.5141 24Z" fill="#686868"/>
<path d="M26.4569 12.2C26.4567 12.3402 26.4009 12.4746 26.3017 12.5738C26.2026 12.6729 26.0682 12.7288 25.9279 12.729H10.0709C9.93627 12.7207 9.80982 12.6614 9.71739 12.5631C9.62495 12.4648 9.57349 12.335 9.57349 12.2C9.57349 12.0651 9.62495 11.9352 9.71739 11.8369C9.80982 11.7386 9.93627 11.6793 10.0709 11.671L25.9279 11.674C25.9972 11.6738 26.0659 11.6872 26.13 11.7135C26.1941 11.7398 26.2524 11.7785 26.3015 11.8273C26.3507 11.8762 26.3897 11.9342 26.4164 11.9982C26.443 12.0621 26.4568 12.1307 26.4569 12.2ZM12.1859 12.814H23.8149V14H12.1859V12.814Z" fill="#686868"/>
<path d="M12.7141 20.829C12.7141 21.413 12.3981 21.886 12.0091 21.886H11.3041C10.9151 21.886 10.5991 21.413 10.5991 20.829V12.815C10.5991 12.231 10.9151 11.758 11.3041 11.758H12.0091C12.3981 11.758 12.7141 12.231 12.7141 12.815V20.829ZM25.4001 20.829C25.4001 21.413 25.0851 21.886 24.6951 21.886H23.9901C23.6011 21.886 23.2851 21.413 23.2851 20.829V12.815C23.2851 12.231 23.6001 11.758 23.9901 11.758H24.6951C25.0841 11.758 25.4001 12.231 25.4001 12.815V20.829ZM16.9431 20.829C16.9431 21.413 16.6271 21.886 16.2381 21.886H15.5331C15.1441 21.886 14.8281 21.413 14.8281 20.829V12.815C14.8281 12.231 15.1441 11.758 15.5331 11.758H16.2381C16.6271 11.758 16.9431 12.231 16.9431 12.815V20.829ZM21.1711 20.829C21.1711 21.413 20.8551 21.886 20.4661 21.886H19.7621C19.3731 21.886 19.0571 21.413 19.0571 20.829V12.815C19.0571 12.231 19.3731 11.758 19.7621 11.758H20.4661C20.8551 11.758 21.1711 12.231 21.1711 12.815V20.829Z" fill="#FFD983"/>
<path d="M25.929 21.357C25.929 21.941 25.456 22.414 24.872 22.414H11.129C10.8487 22.414 10.5798 22.3026 10.3816 22.1044C10.1834 21.9062 10.072 21.6373 10.072 21.357C10.072 21.0767 10.1834 20.8078 10.3816 20.6096C10.5798 20.4114 10.8487 20.3 11.129 20.3H24.872C25.455 20.3 25.929 20.773 25.929 21.357Z" fill="#FFCC4D"/>
<path d="M26.9859 22.414C26.9859 22.998 26.5129 23.471 25.9289 23.471H10.0709C9.79058 23.471 9.52173 23.3596 9.3235 23.1614C9.12528 22.9632 9.01392 22.6943 9.01392 22.414C9.01392 22.1337 9.12528 21.8648 9.3235 21.6666C9.52173 21.4684 9.79058 21.357 10.0709 21.357H25.9279C26.5119 21.357 26.9859 21.83 26.9859 22.414Z" fill="#FFD983"/>
<path d="M27.5141 23.207C27.5141 23.4173 27.4305 23.619 27.2818 23.7677C27.1331 23.9165 26.9314 24 26.7211 24H9.27908C9.17495 24 9.07183 23.9795 8.97562 23.9396C8.8794 23.8998 8.79199 23.8414 8.71835 23.7677C8.64471 23.6941 8.5863 23.6067 8.54645 23.5105C8.5066 23.4143 8.48608 23.3111 8.48608 23.207C8.48608 23.1029 8.5066 22.9997 8.54645 22.9035C8.5863 22.8073 8.64471 22.7199 8.71835 22.6463C8.79199 22.5726 8.8794 22.5142 8.97562 22.4744C9.07183 22.4345 9.17495 22.414 9.27908 22.414H26.7221C27.1591 22.414 27.5141 22.769 27.5141 23.207Z" fill="#FFD983"/>
<path d="M25.929 12.286C25.929 11.702 25.424 11.229 24.802 11.229H11.129C10.506 11.229 10.072 11.702 10.072 12.286C10.072 12.683 10.276 13.025 10.601 13.206V13.872H12.715V13.343H14.829V13.872H16.943V13.343H19.057V13.872H21.171V13.343H23.285V13.872H25.4V13.179C25.717 12.991 25.929 12.662 25.929 12.286Z" fill="#FFCC4D"/>
<path d="M9.54297 11.463C9.54297 10.918 10.078 10.7 10.078 10.7L17.956 7L25.909 10.7C25.909 10.7 26.457 10.822 26.457 11.467V11.758H9.54297V11.463Z" fill="#FFD983"/>
<path d="M18 8.34302C18 8.34302 12.545 10.914 12.001 11.146C11.456 11.377 11.638 11.757 12.002 11.757H23.972C24.534 11.757 24.401 11.328 23.955 11.096C23.509 10.865 18 8.34302 18 8.34302Z" fill="#FFAC33"/>
<path d="M26.4569 11.757C26.4567 11.8972 26.4009 12.0316 26.3017 12.1308C26.2026 12.2299 26.0682 12.2858 25.9279 12.286H10.0709C9.93627 12.2777 9.80982 12.2184 9.71739 12.1201C9.62495 12.0218 9.57349 11.892 9.57349 11.757C9.57349 11.6221 9.62495 11.4922 9.71739 11.3939C9.80982 11.2957 9.93627 11.2363 10.0709 11.228L25.9279 11.231C25.9972 11.2308 26.0659 11.2442 26.13 11.2705C26.1941 11.2968 26.2524 11.3355 26.3015 11.3843C26.3507 11.4332 26.3897 11.4912 26.4164 11.5552C26.443 11.6192 26.4568 11.6877 26.4569 11.757Z" fill="#FFD983"/>
</svg>
